<svg xmlns="http://www.w3.org/2000/svg" viewBox="0 0 48 48"><path fill="#03a9f4" d="M38.13,6H7C4,6,3,8,3,9v7a1,1,0,0,0,1,1H4l37-1a1,1,0,0,0,1-1V9.88A3.88,3.88,0,0,0,38.13,6Z"/><path fill="#e0e0e0" d="M39,12H7C3,12,3,8.89,3,9V37a5,5,0,0,0,5,5H39a5,5,0,0,0,5-5V17A5,5,0,0,0,39,12Z"/><circle cx="36" cy="27" r="3" fill="#03a9f4"/><rect width="4" height="2" x="6" y="36" fill="#03a9f4"/><rect width="4" height="2" x="12" y="36" fill="#03a9f4"/><rect width="4" height="2" x="18" y="36" fill="#03a9f4"/><rect width="4" height="2" x="24" y="36" fill="#03a9f4"/><rect width="4" height="2" x="30" y="36" fill="#03a9f4"/><rect width="4" height="2" x="36" y="36" fill="#03a9f4"/><rect width="4" height="2" x="6" y="16" fill="#03a9f4"/><rect width="4" height="2" x="12" y="16" fill="#03a9f4"/><rect width="4" height="2" x="18" y="16" fill="#03a9f4"/><rect width="4" height="2" x="24" y="16" fill="#03a9f4"/><rect width="4" height="2" x="30" y="16" fill="#03a9f4"/><rect width="4" height="2" x="36" y="16" fill="#03a9f4"/></svg>